<?xml version="1.0" encoding="UTF-8" standalone="no"?>
<svg
   version="1.1"
   id="Layer_1"
   x="0px"
   y="0px"
   viewBox="0 0 98.199997 98.199997"
   xml:space="preserve"
   sodipodi:docname="iconBack1.svg"
   inkscape:version="1.3.2 (091e20ef0f, 2023-11-25)"
   inkscape:export-filename="iconBack1.svg"
   inkscape:export-xdpi="96"
   inkscape:export-ydpi="96"
   width="98.199997"
   height="98.199997"
   xmlns:inkscape="http://www.inkscape.org/namespaces/inkscape"
   xmlns:sodipodi="http://sodipodi.sourceforge.net/DTD/sodipodi-0.dtd"
   xmlns="http://www.w3.org/2000/svg"
   xmlns:svg="http://www.w3.org/2000/svg"><defs
   id="defs9" /><sodipodi:namedview
   id="namedview9"
   pagecolor="#ffffff"
   bordercolor="#000000"
   borderopacity="0.25"
   inkscape:showpageshadow="2"
   inkscape:pageopacity="0.0"
   inkscape:pagecheckerboard="0"
   inkscape:deskcolor="#d1d1d1"
   inkscape:zoom="4.189072"
   inkscape:cx="6.0872671"
   inkscape:cy="28.049172"
   inkscape:window-width="2544"
   inkscape:window-height="1355"
   inkscape:window-x="26"
   inkscape:window-y="23"
   inkscape:window-maximized="0"
   inkscape:current-layer="g10"
   inkscape:export-bgcolor="#ffffff00" />
<style
   type="text/css"
   id="style1">
	.st0{fill:#C5DB59;}
</style>

<g
   id="g10"
   transform="translate(-50.49312,-25.42747)"
   style="display:inline"><g
     id="g11"
     transform="translate(-205.40688,-321.37253)"><path
       d="m 332.5,445 h -55 c -11.9,0 -21.6,-9.7 -21.6,-21.6 v -55 c 0,-11.9 9.7,-21.6 21.6,-21.6 h 55 c 11.9,0 21.6,9.7 21.6,21.6 v 55 c -0.1,12 -9.7,21.6 -21.6,21.6 z"
       id="path1"
       inkscape:export-filename="iconBack01.svg"
       inkscape:export-xdpi="96"
       inkscape:export-ydpi="96" /><g
       transform="matrix(0.75505556,0,0,0.75505556,-5.662916,-9.0599135)"
       id="g9">
	<g
   id="g8">
		<path
   class="st0"
   d="m 427.6,531.8 c 2.4,-0.7 4.7,-1.2 6.8,-1.6 -0.1,-3.9 -0.6,-7 -1,-8.9 -1.5,0.6 -4,1.6 -6.8,3.1 0.5,1.8 0.8,3.7 0.9,5.6 0.1,0.7 0.1,1.2 0.1,1.8 z"
   id="path2" />
		<path
   class="st0"
   d="m 436.6,546.7 c 2.3,-4.6 3.6,-9.2 4.2,-12.3 -8.4,0.4 -26.7,-1.5 -32.9,23.2 -0.4,1.7 -1.2,4 -1.8,5.8 1.9,-0.3 20.6,3.4 30.5,-16.7 z"
   id="path3" />
		<path
   class="st0"
   d="m 440.4,546.2 c -0.3,0.7 -0.6,1.3 -0.9,2 -3.7,7.2 -8.7,12.3 -15,15.1 18,2.1 33.2,-9.1 33.2,-9.1 0,0 -7.1,-5.3 -17.3,-8 z"
   id="path4" />
		<path
   class="st0"
   d="m 410.1,542.9 c 3.3,-4 7.6,-7.1 12.9,-9.4 0.4,-0.2 0.8,-0.4 1.3,-0.5 0.1,-0.9 0.1,-1.8 0,-2.6 -0.7,-11.7 -9.9,-21.6 -13,-24.7 -2,2 -6.5,6.9 -9.6,13.3 -2.4,5 -3.5,9.9 -3.2,14.6 4.8,2.2 8.7,5.4 11.6,9.3 z"
   id="path5" />
		<path
   class="st0"
   d="m 382.7,547.3 c -0.1,-0.1 -0.1,-0.3 -0.2,-0.4 -9,2.9 -8.5,2.6 -14.8,7.3 0,0 14.7,10.8 32.3,9.2 -7.3,-2.7 -13.1,-8.1 -17.3,-16.1 z"
   id="path6" />
		<path
   class="st0"
   d="m 381.2,533.7 c 0.7,3 2,7.5 4.4,12.1 4.2,8 10.2,13.1 17.8,15.3 0.2,-0.5 1.2,-8.6 4.9,-14.9 -6.1,-10.9 -20.5,-12.3 -27.1,-12.5 z"
   id="path7" />
		<path
   class="st0"
   d="m 396.2,524.6 c -3,-1.7 -5.6,-2.7 -7.2,-3.3 -0.4,1.8 -0.9,4.9 -1,8.6 2.3,0.5 4.8,1.1 7.2,2.1 0.1,-2.4 0.4,-4.9 1,-7.4 z"
   id="path8" />
	</g>
</g></g></g>
</svg>
