<?xml version="1.0" encoding="utf-8"?>
<svg version="1.1" id="Layer_1" xmlns="http://www.w3.org/2000/svg" xmlns:xlink="http://www.w3.org/1999/xlink" x="0px" y="0px"
	 viewBox="0 0 612 792" style="enable-background:new 0 0 612 792;" xml:space="preserve">
<style type="text/css">
	.st0{fill:#C5DB59;}
</style>
<path d="M332.5,445h-55c-11.9,0-21.6-9.7-21.6-21.6v-55c0-11.9,9.7-21.6,21.6-21.6h55c11.9,0,21.6,9.7,21.6,21.6v55
	C354,435.4,344.4,445,332.5,445z"/>
<g transform="translate(-5.662915963081866, -9.05991349241517) scale(0.7550555577545278)">
	<g>
		<path class="st0" d="M427.6,531.8c2.4-0.7,4.7-1.2,6.8-1.6c-0.1-3.9-0.6-7-1-8.9c-1.5,0.6-4,1.6-6.8,3.1c0.5,1.8,0.8,3.7,0.9,5.6
			C427.6,530.7,427.6,531.2,427.6,531.8z"/>
		<path class="st0" d="M436.6,546.7c2.3-4.6,3.6-9.2,4.2-12.3c-8.4,0.4-26.7-1.5-32.9,23.2c-0.4,1.7-1.2,4-1.8,5.8
			C408,563.1,426.7,566.8,436.6,546.7z"/>
		<path class="st0" d="M440.4,546.2c-0.3,0.7-0.6,1.3-0.9,2c-3.7,7.2-8.7,12.3-15,15.1c18,2.1,33.2-9.1,33.2-9.1
			S450.6,548.9,440.4,546.2z"/>
		<path class="st0" d="M410.1,542.9c3.3-4,7.6-7.1,12.9-9.4c0.4-0.2,0.8-0.4,1.3-0.5c0.1-0.9,0.1-1.8,0-2.6
			c-0.7-11.7-9.9-21.6-13-24.7c-2,2-6.5,6.9-9.6,13.3c-2.4,5-3.5,9.9-3.2,14.6C403.3,535.8,407.2,539,410.1,542.9z"/>
		<path class="st0" d="M382.7,547.3c-0.1-0.1-0.1-0.3-0.2-0.4c-9,2.9-8.5,2.6-14.8,7.3c0,0,14.7,10.8,32.3,9.2
			C392.7,560.7,386.9,555.3,382.7,547.3z"/>
		<path class="st0" d="M381.2,533.7c0.7,3,2,7.5,4.4,12.1c4.2,8,10.2,13.1,17.8,15.3c0.2-0.5,1.2-8.6,4.9-14.9
			C402.2,535.3,387.8,533.9,381.2,533.7z"/>
		<path class="st0" d="M396.2,524.6c-3-1.7-5.6-2.7-7.2-3.3c-0.4,1.8-0.9,4.9-1,8.6c2.3,0.5,4.8,1.1,7.2,2.1
			C395.3,529.6,395.6,527.1,396.2,524.6z"/>
	</g>
</g>
</svg>
