
<svg width="429" height="93.84375" viewBox="0 0 384 84" class="looka-1j8o68f"><defs id="SvgjsDefs1015"></defs><g id="SvgjsG1016" featurekey="rootContainer" transform="matrix(1,0,0,1,0,0)" fill="#c4ff61"><rect xmlns="http://www.w3.org/2000/svg" width="384" height="84" rx="10" ry="10"></rect></g><g id="SvgjsG1017" featurekey="nRdZyp-0" transform="matrix(0.7550555577545278,0,0,0.7550555577545278,14.337084036918135,10.94008650758483)" fill="#000000"><g xmlns="http://www.w3.org/2000/svg"><path d="M67.45,38.21c2.386-0.735,4.701-1.243,6.837-1.59c-0.093-3.854-0.606-7.039-0.977-8.869   c-1.529,0.566-3.999,1.585-6.803,3.117c0.465,1.814,0.781,3.701,0.896,5.643C67.438,37.08,67.453,37.646,67.45,38.21z"></path><path d="M76.453,53.136c2.3-4.647,3.571-9.216,4.185-12.318c-8.436,0.364-26.668-1.547-32.941,23.198   c-0.422,1.665-1.195,4.001-1.822,5.779C47.808,69.527,66.508,73.23,76.453,53.136z"></path><path d="M80.278,52.645c-0.294,0.651-0.603,1.306-0.937,1.962c-3.69,7.25-8.723,12.306-15.028,15.132   C82.337,71.826,97.5,60.68,97.5,60.68S90.425,55.336,80.278,52.645z"></path><path d="M49.97,49.317c3.307-3.979,7.621-7.131,12.923-9.428c0.425-0.184,0.849-0.358,1.271-0.524   c0.051-0.875,0.057-1.757,0.005-2.646c-0.687-11.733-9.869-21.63-13.045-24.72c-2.019,2.018-6.491,6.902-9.557,13.308   c-2.413,5.043-3.47,9.912-3.183,14.584C43.182,42.243,47.052,45.395,49.97,49.317z"></path><path d="M22.501,53.768c-0.073-0.14-0.141-0.277-0.211-0.416c-8.953,2.861-8.482,2.56-14.79,7.328c0,0,14.662,10.778,32.285,9.155   C32.494,67.09,26.692,61.702,22.501,53.768z"></path><path d="M21.002,40.168c0.672,3.045,1.968,7.545,4.365,12.084c4.217,7.985,10.187,13.117,17.759,15.273   c0.175-0.484,1.199-8.642,4.928-14.881C42.058,41.77,27.632,40.313,21.002,40.168z"></path><path d="M36.04,31.073c-2.962-1.652-5.584-2.733-7.183-3.324c-0.36,1.796-0.86,4.894-0.97,8.638   c2.323,0.475,4.782,1.146,7.246,2.09C35.123,36.046,35.42,33.574,36.04,31.073z"></path></g></g><g id="SvgjsG1018" featurekey="nameLeftFeature-0" transform="matrix(1.8999624382303024,0,0,1.8999624382303024,104.21489502479814,17.83021287971711)" fill="#000000"><path d="M9.4434 20 l-3.6133 -6.2109 l-1.5039 0 l0 6.2109 l-2.334 0 l0 -13.926 l4.834 0 c3.0176 0 4.3457 1.8066 4.3457 4.043 c0 1.9434 -1.1523 3.252 -2.998 3.584 l4.0137 6.2988 l-2.7441 0 z M4.3262 8.047 l0 4.0137 l2.1582 0 c1.709 0 2.4414 -0.80078 2.4414 -1.9922 c0 -1.1816 -0.73242 -2.0215 -2.4414 -2.0215 l-2.1582 0 z M23.896671875 20 l-1.1035 -3.0957 l-6.084 0 l-1.0938 3.0957 l-2.4121 0 l5.127 -13.926 l2.8418 0 l5.127 13.926 l-2.4023 0 z M17.421871875 14.9023 l4.668 0 l-2.334 -6.582 z M38.174046875 6.074 l2.334 0 l0 13.926 l-2.6172 0 l-6.8359 -10.625 l0 10.625 l-2.3145 0 l0 -13.926 l2.5879 0 l6.8457 10.557 l0 -10.557 z M50.5566 20.18555 c-4.0039 0 -7.0313 -2.7441 -7.0313 -7.1582 c0 -4.4043 3.0273 -7.1484 7.0313 -7.1484 c3.9941 0 7.0215 2.7441 7.0215 7.1484 c0 4.4141 -3.0273 7.1582 -7.0215 7.1582 z M50.5566 18.0176 c2.6367 0 4.6973 -1.8262 4.6973 -4.9902 c0 -3.1348 -2.0605 -4.9707 -4.6973 -4.9707 s-4.6973 1.8359 -4.6973 4.9707 c0 3.1641 2.0605 4.9902 4.6973 4.9902 z M67.64648125 12.685500000000001 c1.6113 0.42969 2.6953 1.5137 2.6953 3.4766 c0 2.2754 -1.4746 3.8379 -4.1602 3.8379 l-5.5762 0 l0 -13.926 l4.3652 0 c2.7539 0 4.3652 1.4746 4.3652 3.75 c0 1.2793 -0.57617 2.3242 -1.6895 2.8613 z M64.98048125 8.047 l-2.1191 0 l0 3.916 l2.3535 0 c1.25 0 1.9531 -0.88867 1.9531 -1.9922 c0 -1.0938 -0.76172 -1.9238 -2.1875 -1.9238 z M65.76168125 17.9687 c1.582 0 2.3145 -0.9668 2.3145 -2.0605 c0 -1.1426 -0.75195 -2.0996 -2.4023 -2.0996 l-2.8125 0 l0 4.1602 l2.9004 0 z M81.044896875 8.154 l-5.4102 0 l0 3.8574 l4.7852 0 l0 2.0605 l-4.7852 0 l0 3.8379 l5.4102 0 l0 2.0898 l-7.7734 0 l0 -13.926 l7.7734 0 l0 2.0801 z"></path></g><g id="SvgjsG1019" featurekey="nameRightFeature-0" transform="matrix(1.8743544157271845,0,0,1.8743544157271845,263.5770539502688,18.32883138660676)" fill="#000000"><path d="M1.8262 20 l0 -14.111 l5.1074 0 c4.502 0 6.7285 2.832 6.7285 7.0508 c0 4.2285 -2.2266 7.0605 -6.7285 7.0605 l-5.1074 0 z M4.7559 17.4121 l2.0313 0 c2.5977 0 3.7891 -1.6211 3.7891 -4.4727 s-1.1914 -4.4727 -3.7891 -4.4727 l-2.0313 0 l0 8.9453 z M25.850078125 20 l-1.0254 -2.9102 l-5.9277 0 l-1.0254 2.9102 l-2.998 0 l5.1953 -14.111 l3.584 0 l5.1953 14.111 l-2.998 0 z M19.755878125 14.6387 l4.209 0 l-2.0996 -5.9863 z M41.552625 5.888999999999999 l-4.6387 7.3535 l0 6.7578 l-2.9395 0 l0 -6.6895 l-4.668 -7.4219 l3.2422 0 l2.8809 4.8047 l2.8906 -4.8047 l3.2324 0 z M48.222684375 20.19531 c-3.0273 0 -5.3906 -1.4551 -5.8203 -4.1016 l3.0273 -0.69336 c0.19531 1.582 1.3574 2.4023 2.9102 2.4023 c1.1914 0 2.1387 -0.52734 2.1289 -1.7188 c-0.0097656 -1.3281 -1.5723 -1.748 -3.291 -2.2754 c-2.0703 -0.64453 -4.2871 -1.4063 -4.2871 -4.0039 c0 -2.627 2.1484 -4.1113 4.9805 -4.1113 c2.4805 0 4.9805 1.0059 5.5469 3.7109 l-2.832 0.70313 c-0.26367 -1.4063 -1.2109 -2.0215 -2.5391 -2.0215 c-1.1816 0 -2.1875 0.48828 -2.1875 1.6504 c0 1.084 1.3867 1.4453 2.9883 1.9238 c2.1289 0.64453 4.6484 1.4648 4.6484 4.2773 c0 2.998 -2.5098 4.2578 -5.2734 4.2578 z"></path></g></svg>
